<?xml version="1.0" encoding="UTF-8" ?>
<!DOCTYPE svg PUBLIC "-//W3C//DTD SVG 1.1//EN" "http://www.w3.org/Graphics/SVG/1.1/DTD/svg11.dtd">
<svg width="550pt" height="258pt" viewBox="0 0 550 258" version="1.1" xmlns="http://www.w3.org/2000/svg">
<g id="#ffffffff">
</g>
<g id="#0293d0ff">
<path fill="#0293d0" opacity="1.00" d=" M 59.92 39.96 C 78.28 23.18 102.94 13.58 127.80 13.41 C 127.80 20.99 127.81 28.58 127.80 36.16 C 107.85 35.18 88.11 41.66 71.33 52.17 C 47.48 67.33 29.20 89.82 15.13 114.05 C 18.50 100.41 24.65 87.64 31.45 75.41 C 39.07 62.26 48.39 49.92 59.92 39.96 Z" />
<path fill="#0293d0" opacity="1.00" d=" M 63.50 84.54 C 75.76 71.23 91.49 60.48 109.22 56.22 C 99.88 59.67 91.86 65.92 84.55 72.53 C 72.98 84.02 65.37 99.12 61.99 115.00 C 57.85 133.04 61.05 152.46 70.29 168.45 C 82.70 190.56 104.47 206.02 127.80 214.97 C 127.77 224.86 127.88 234.75 127.76 244.64 C 110.35 241.72 93.29 235.50 79.15 224.75 C 53.25 205.65 37.57 173.14 40.06 140.90 C 41.23 120.19 49.80 100.07 63.50 84.54 Z" />
<path fill="#0293d0" opacity="1.00" d=" M 432.79 133.59 C 436.40 133.37 440.03 133.37 443.66 133.50 C 443.20 136.12 442.65 138.72 442.12 141.32 C 438.79 141.26 435.47 141.26 432.15 141.28 C 432.23 138.71 432.48 136.15 432.79 133.59 Z" />
<path fill="#0293d0" opacity="1.00" d=" M 455.27 133.73 C 458.56 133.82 461.86 133.82 465.17 133.72 C 467.00 135.92 468.71 138.23 470.38 140.57 C 470.47 141.03 470.67 141.94 470.76 142.40 C 468.67 142.39 466.58 142.40 464.50 142.42 C 461.32 140.27 458.21 138.01 455.16 135.68 C 455.19 135.20 455.24 134.22 455.27 133.73 Z" />
<path fill="#0293d0" opacity="1.00" d=" M 186.63 135.69 C 190.28 135.65 193.93 135.64 197.59 135.74 C 195.51 146.33 192.94 156.83 191.23 167.49 C 196.71 167.42 202.18 167.45 207.66 167.46 C 207.09 170.13 206.52 172.79 206.03 175.48 C 197.99 175.55 189.95 175.47 181.91 175.57 C 180.28 175.62 178.69 175.29 177.13 174.85 L 178.55 174.86 C 181.06 161.77 184.06 148.77 186.63 135.69 Z" />
<path fill="#0293d0" opacity="1.00" d=" M 265.14 159.08 C 267.01 151.28 268.09 143.28 270.45 135.60 C 277.28 136.00 284.24 134.99 290.96 136.64 C 295.21 137.56 298.61 141.63 298.47 146.03 C 298.90 151.78 295.37 157.52 290.09 159.78 C 285.51 161.94 280.33 161.65 275.41 161.61 C 274.30 166.23 273.49 170.92 272.33 175.54 C 268.88 175.51 265.43 175.53 261.99 175.50 C 262.35 169.91 264.16 164.57 265.14 159.08 M 277.18 153.82 C 279.50 153.74 281.83 153.60 284.16 153.47 C 287.57 151.76 288.13 148.02 287.33 144.62 C 284.85 143.60 282.18 143.36 279.52 143.31 C 278.47 146.75 277.61 150.25 277.18 153.82 Z" />
<path fill="#0293d0" opacity="1.00" d=" M 408.85 139.58 C 412.48 138.35 416.23 137.52 419.90 136.40 C 419.41 139.51 418.78 142.59 418.22 145.69 C 420.43 145.67 422.63 145.64 424.85 145.61 C 424.71 148.22 424.28 150.80 423.55 153.31 C 421.14 153.26 418.73 153.25 416.33 153.23 C 415.79 158.58 412.37 164.13 414.77 169.39 C 416.64 169.37 418.50 169.34 420.37 169.30 C 419.98 171.40 419.60 173.50 419.24 175.60 C 415.26 176.17 411.01 176.75 407.23 174.99 C 404.81 173.60 403.38 170.85 403.37 168.08 C 403.21 163.06 405.02 158.27 405.87 153.37 C 404.07 153.16 402.11 153.55 400.50 152.59 C 400.83 150.28 401.36 148.00 401.80 145.72 C 403.72 145.70 405.66 145.68 407.59 145.69 C 408.09 143.67 408.52 141.63 408.85 139.58 Z" />
<path fill="#0293d0" opacity="1.00" d=" M 143.66 138.39 C 145.76 138.35 147.86 138.32 149.96 138.29 C 149.59 146.35 146.11 154.04 145.92 162.02 C 145.07 162.94 145.35 164.28 145.14 165.42 C 143.04 165.50 140.94 165.56 138.85 165.63 C 138.70 164.82 138.56 164.01 138.43 163.21 C 136.57 166.59 132.05 166.02 128.88 165.25 C 123.29 161.52 124.67 152.99 128.53 148.46 C 132.03 145.19 138.24 145.37 141.49 148.94 C 142.34 145.45 143.06 141.93 143.66 138.39 M 133.78 152.74 C 131.47 154.61 132.41 157.85 132.64 160.38 C 134.54 160.39 136.97 161.22 138.29 159.35 C 140.43 157.35 139.72 154.24 139.31 151.70 C 137.41 151.53 135.18 151.06 133.78 152.74 Z" />
<path fill="#0293d0" opacity="1.00" d=" M 220.81 145.71 C 226.86 145.25 233.85 143.89 239.02 147.94 C 242.06 150.30 242.03 154.54 241.70 158.01 C 240.69 163.86 238.97 169.57 238.21 175.47 C 235.38 175.50 232.56 175.51 229.74 175.48 C 229.71 174.63 229.65 172.94 229.62 172.10 C 226.67 175.82 221.45 176.80 217.00 175.89 C 213.14 175.55 209.78 171.89 210.20 167.95 C 209.66 163.48 213.13 159.54 217.15 158.14 C 221.82 156.28 226.93 156.51 231.86 156.65 C 231.80 155.63 231.75 154.62 231.70 153.60 C 227.20 151.01 221.88 152.38 217.26 153.82 C 217.44 151.42 217.65 149.02 217.87 146.62 C 218.44 146.56 219.59 146.42 220.16 146.36 L 220.81 145.71 M 220.53 163.90 C 220.47 165.29 220.41 166.68 220.35 168.07 C 221.03 168.43 222.39 169.13 223.06 169.49 C 227.03 169.09 230.19 166.30 231.03 162.40 C 227.45 162.15 223.80 162.26 220.53 163.90 Z" />
<path fill="#0293d0" opacity="1.00" d=" M 312.36 145.50 C 318.88 144.46 326.95 145.05 330.90 151.15 C 334.28 157.44 333.25 166.14 328.21 171.30 C 322.88 176.03 315.08 177.03 308.31 175.58 C 303.84 174.85 300.03 171.32 298.67 167.05 C 297.63 162.30 298.00 156.95 300.83 152.85 C 303.23 148.72 307.86 146.49 312.36 145.50 M 314.15 152.95 C 309.25 155.23 308.30 161.55 309.67 166.27 C 311.08 169.04 314.68 169.03 317.28 168.32 C 321.60 166.09 322.78 160.30 321.73 155.92 C 321.25 152.49 316.85 151.63 314.15 152.95 Z" />
<path fill="#0293d0" opacity="1.00" d=" M 493.75 147.92 C 496.95 144.90 501.32 144.87 505.42 145.57 C 504.41 148.50 503.69 151.51 503.21 154.57 C 499.31 153.17 493.82 153.35 491.84 157.63 C 489.72 163.41 489.01 169.59 487.57 175.55 C 484.10 175.53 480.62 175.52 477.16 175.51 C 479.08 165.51 481.28 155.56 483.28 145.58 C 486.31 145.73 489.34 145.74 492.38 145.66 C 492.40 147.41 492.43 149.16 492.47 150.91 C 492.79 150.16 493.43 148.67 493.75 147.92 Z" />
<path fill="#0293d0" opacity="1.00" d=" M 505.58 152.49 C 509.02 148.06 514.21 144.73 520.01 145.19 C 525.18 144.55 530.50 146.78 533.18 151.34 C 534.92 155.23 534.60 159.67 533.66 163.73 C 526.76 163.53 519.85 163.78 512.95 163.69 C 513.44 165.17 513.15 167.29 514.93 167.95 C 519.62 170.49 525.08 168.70 529.85 167.32 C 529.52 169.75 529.13 172.19 528.61 174.59 C 521.26 176.52 512.02 177.74 506.27 171.60 C 501.14 166.48 502.38 158.31 505.58 152.49 M 517.05 152.59 C 516.23 153.38 515.40 154.16 514.58 154.93 C 514.40 155.86 514.22 156.79 514.05 157.72 C 518.01 157.71 521.97 157.71 525.93 157.62 C 525.38 155.98 525.19 154.05 523.88 152.82 C 521.76 151.68 519.29 152.41 517.05 152.59 Z" />
<path fill="#0293d0" opacity="1.00" d=" M 151.78 163.25 C 146.66 157.75 150.60 147.51 157.92 146.41 C 161.15 146.10 165.16 145.62 167.50 148.41 C 170.26 150.72 169.52 154.54 169.61 157.71 C 165.11 158.22 160.57 158.12 156.05 158.21 C 156.16 158.75 156.37 159.83 156.48 160.37 C 159.67 162.33 163.40 161.35 166.72 160.32 C 166.52 161.98 166.34 163.63 166.16 165.29 C 161.41 165.54 155.49 167.22 151.78 163.25 M 157.39 151.66 C 157.33 152.28 157.21 153.51 157.15 154.12 C 159.33 154.20 161.50 154.26 163.68 154.33 C 163.59 153.17 163.75 151.90 163.03 150.90 C 161.12 150.11 159.16 150.90 157.39 151.66 Z" />
<path fill="#0293d0" opacity="1.00" d=" M 344.83 147.59 C 350.88 144.01 358.31 144.96 364.77 146.75 C 364.15 149.10 363.53 151.45 362.95 153.81 C 358.92 153.21 354.25 151.44 350.62 154.20 C 347.84 155.92 347.21 159.22 346.53 162.14 C 347.43 164.20 348.08 166.80 350.40 167.73 C 353.60 169.42 357.23 167.98 360.52 167.35 C 360.01 169.97 359.54 172.60 359.14 175.24 C 352.94 176.22 345.37 177.52 340.44 172.58 C 336.31 169.43 335.69 163.73 336.48 158.94 C 337.25 154.07 340.83 150.18 344.83 147.59 Z" />
<path fill="#0293d0" opacity="1.00" d=" M 371.72 146.65 C 377.00 145.08 382.69 144.70 388.11 145.71 C 392.44 146.58 395.84 150.57 395.54 155.07 C 395.29 161.99 392.35 168.51 391.97 175.45 C 389.10 175.51 386.24 175.51 383.37 175.52 C 383.39 174.60 383.42 172.74 383.44 171.82 C 383.17 172.21 382.63 173.00 382.35 173.39 C 377.75 176.49 371.42 177.41 366.58 174.31 C 362.09 170.62 362.87 162.74 367.72 159.70 C 372.95 156.15 379.54 156.37 385.59 156.63 C 385.56 156.10 385.51 155.03 385.49 154.50 C 384.82 153.82 384.16 153.13 383.50 152.45 C 379.08 151.66 374.70 152.59 370.49 153.89 C 370.92 151.48 371.35 149.07 371.72 146.65 M 374.82 163.68 C 374.46 164.22 373.74 165.32 373.39 165.87 C 373.66 166.57 374.22 167.98 374.50 168.68 C 376.41 168.72 378.36 168.95 380.25 168.50 C 382.64 167.28 383.92 164.83 384.70 162.37 C 381.35 162.16 377.92 162.27 374.82 163.68 Z" />
<path fill="#0293d0" opacity="1.00" d=" M 430.62 145.63 C 434.03 145.70 437.44 145.69 440.86 145.66 C 439.52 155.71 436.62 165.48 435.10 175.50 C 431.51 175.52 427.93 175.53 424.34 175.47 C 426.47 165.53 428.42 155.56 430.62 145.63 Z" />
<path fill="#0293d0" opacity="1.00" d=" M 443.71 160.04 C 445.08 153.68 449.24 147.15 456.00 145.73 C 461.41 144.76 468.08 144.45 472.13 148.88 C 475.98 152.71 475.80 158.69 474.76 163.63 C 467.65 163.68 460.54 163.56 453.43 163.73 C 454.05 165.55 454.64 167.82 456.74 168.44 C 461.31 170.30 466.15 168.58 470.62 167.33 C 470.40 169.64 470.21 171.97 470.07 174.29 C 464.00 176.05 457.16 177.45 451.22 174.52 C 447.21 172.91 444.72 169.05 443.67 165.01 C 443.69 163.35 443.70 161.70 443.71 160.04 M 454.03 157.51 C 458.27 157.79 462.52 157.72 466.77 157.60 C 466.55 155.29 465.71 152.09 462.80 152.21 C 458.83 151.30 455.77 154.33 454.03 157.51 Z" />
</g>
<g id="#221f20ff">
<path fill="#221f20" opacity="1.00" d=" M 176.15 77.18 C 178.04 74.06 180.09 71.04 181.90 67.87 C 186.59 67.73 191.28 67.74 195.97 67.86 C 192.13 71.06 188.30 74.35 184.11 77.08 C 181.47 77.38 178.80 77.18 176.15 77.18 Z" />
<path fill="#221f20" opacity="1.00" d=" M 134.08 84.04 C 142.07 78.36 152.57 78.70 161.78 80.53 C 161.75 84.20 161.81 87.87 161.67 91.54 C 157.13 89.83 151.87 88.92 147.41 91.40 C 140.71 94.45 140.68 105.56 147.14 108.88 C 151.64 111.47 157.07 110.30 161.75 108.84 C 161.83 112.53 161.84 116.21 161.78 119.90 C 152.70 122.02 142.24 122.36 134.33 116.67 C 123.79 109.43 123.33 91.32 134.08 84.04 Z" />
<path fill="#221f20" opacity="1.00" d=" M 211.87 83.90 C 221.13 77.61 233.12 78.95 243.58 80.74 C 243.58 84.44 243.61 88.15 243.59 91.85 C 237.63 89.31 230.32 88.32 224.48 91.69 C 219.32 94.95 218.82 102.52 221.59 107.50 C 223.55 111.00 228.01 111.70 231.61 110.80 C 231.59 107.18 231.55 103.56 231.63 99.94 C 236.19 99.99 240.75 99.91 245.31 100.06 C 245.17 106.43 245.32 112.81 245.27 119.18 C 234.94 121.65 223.10 123.18 213.46 117.68 C 201.47 111.14 200.32 91.44 211.87 83.90 Z" />
<path fill="#221f20" opacity="1.00" d=" M 165.24 80.08 C 177.02 80.07 188.79 80.09 200.57 80.07 C 200.60 83.32 200.62 86.58 200.53 89.83 C 193.91 89.82 187.28 89.83 180.66 89.83 C 180.65 91.74 180.63 93.65 180.63 95.56 C 187.01 95.50 193.39 95.57 199.77 95.54 C 199.74 98.80 199.74 102.06 199.79 105.32 C 193.41 105.38 187.03 105.34 180.65 105.35 C 180.65 107.14 180.64 108.92 180.64 110.71 C 187.39 110.71 194.14 110.72 200.90 110.70 C 200.90 114.01 200.89 117.33 200.88 120.65 C 189.02 120.69 177.17 120.67 165.31 120.66 C 165.22 107.13 165.30 93.61 165.24 80.08 Z" />
<path fill="#221f20" opacity="1.00" d=" M 250.46 80.07 C 262.24 80.08 274.01 80.08 285.79 80.07 C 285.79 83.30 285.79 86.54 285.79 89.77 C 279.10 90.09 272.35 89.32 265.70 90.25 C 265.79 92.02 265.85 93.79 265.93 95.57 C 272.21 95.49 278.50 95.54 284.79 95.55 C 284.77 98.81 284.77 102.08 284.79 105.34 C 278.46 105.39 272.13 105.26 265.81 105.42 C 265.82 107.17 265.81 108.92 265.80 110.67 C 272.61 110.76 279.43 110.72 286.24 110.68 C 286.23 113.98 286.22 117.28 286.31 120.58 C 274.36 120.77 262.41 120.66 250.46 120.62 C 250.48 107.10 250.46 93.58 250.46 80.07 Z" />
<path fill="#221f20" opacity="1.00" d=" M 290.72 80.09 C 300.15 80.08 309.58 80.04 319.01 80.10 C 324.58 80.18 330.43 83.43 332.01 89.03 C 333.69 95.16 332.50 103.20 326.60 106.68 C 320.57 110.31 313.22 108.49 306.57 108.85 C 306.55 112.77 306.55 116.69 306.57 120.61 C 301.27 120.68 295.97 120.74 290.67 120.59 C 290.79 107.09 290.68 93.59 290.72 80.09 M 306.26 89.42 C 306.20 92.78 306.19 96.15 306.26 99.51 C 309.27 99.54 312.29 99.38 315.22 98.57 C 316.88 96.35 317.88 92.72 315.40 90.72 C 312.59 89.22 309.31 89.63 306.26 89.42 Z" />
</g>
</svg>
